<svg width="12" height="12" viewBox="0 0 12 12" fill="none" xmlns="http://www.w3.org/2000/svg" class="h-4 mr-2"><path d="M11.9382 9.19196L9.95725 11.2846C9.91419 11.3301 9.86208 11.3663 9.80418 11.3911C9.74628 11.4158 9.68382 11.4286 9.62071 11.4286H0.229976C0.185167 11.4286 0.141335 11.4157 0.103866 11.3915C0.0663955 11.3673 0.0369196 11.3328 0.0190593 11.2923C0.00119909 11.2519 -0.0042675 11.2071 0.00333127 11.1636C0.01093 11.1201 0.0312631 11.0798 0.0618323 11.0475L2.04429 8.95486C2.08724 8.90952 2.13917 8.87335 2.19688 8.84859C2.2546 8.82382 2.31686 8.81099 2.37981 8.81089H11.77C11.8148 8.81089 11.8587 8.82379 11.8962 8.84798C11.9336 8.87219 11.9631 8.90665 11.981 8.94712C11.9988 8.98761 12.0043 9.03233 11.9967 9.07583C11.9891 9.11933 11.9688 9.15969 11.9382 9.19196ZM9.95725 4.97799C9.91419 4.93253 9.86208 4.89629 9.80418 4.87152C9.74628 4.84676 9.68382 4.83399 9.62071 4.83402H0.229976C0.185167 4.83402 0.141335 4.84691 0.103866 4.87112C0.0663955 4.89532 0.0369196 4.92978 0.0190593 4.97025C0.00119909 5.01073 -0.0042675 5.05547 0.00333127 5.09897C0.01093 5.14246 0.0312631 5.18282 0.0618323 5.2151L2.04429 7.30774C2.08724 7.35307 2.13917 7.38923 2.19688 7.414C2.2546 7.43876 2.31686 7.4516 2.37981 7.4517H11.77C11.8148 7.4517 11.8587 7.43881 11.8962 7.4146C11.9336 7.3904 11.9631 7.35594 11.981 7.31547C11.9988 7.27499 12.0043 7.23025 11.9967 7.18675C11.9891 7.14327 11.9688 7.1029 11.9382 7.07062L9.95725 4.97799ZM0.229976 3.47484H9.62071C9.68382 3.47486 9.74628 3.4621 9.80418 3.43733C9.86208 3.41256 9.91419 3.37632 9.95725 3.33086L11.9382 1.23822C11.9688 1.20595 11.9891 1.16559 11.9967 1.12209C12.0043 1.0786 11.9988 1.03386 11.981 0.993384C11.9631 0.952906 11.9336 0.918449 11.8962 0.894246C11.8587 0.870043 11.8148 0.857149 11.77 0.857147H2.37981C2.31686 0.857253 2.2546 0.870085 2.19688 0.89485C2.13917 0.919615 2.08724 0.955784 2.04429 1.00112L0.0623433 3.09376C0.0318037 3.12599 0.0114796 3.16632 0.00386358 3.20976C-0.00375242 3.25321 0.00167078 3.29791 0.019468 3.33837C0.0372654 3.37883 0.0666631 3.41328 0.104056 3.43752C0.141449 3.46177 0.185211 3.47473 0.229976 3.47484Z" fill="url(#paint0_linear_389_394)"></path><defs><linearGradient id="paint0_linear_389_394" x1="1.01294" y1="11.6805" x2="10.6944" y2="0.600487" gradientUnits="userSpaceOnUse"><stop offset="0.08" stop-color="#9945FF"></stop><stop offset="0.3" stop-color="#8752F3"></stop><stop offset="0.5" stop-color="#5497D5"></stop><stop offset="0.6" stop-color="#43B4CA"></stop><stop offset="0.72" stop-color="#28E0B9"></stop><stop offset="0.97" stop-color="#19FB9B"></stop></linearGradient></defs></svg>